<svg xmlns="http://www.w3.org/2000/svg" viewBox="0 0 360 360"><defs><style>.cls-1{fill:#231f20;}.cls-2{fill:none;stroke:#231f20;stroke-miterlimit:10;stroke-width:4px;}</style></defs><g id="Layer_4" data-name="Layer 4"><path class="cls-1" d="M184.22,144.43c6.62,1,8.16,4.19,4.51,9.72a60.16,60.16,0,0,1-4,5.62c-1.92,2.29-3.93,2.36-5.86.17a71.17,71.17,0,0,1-5.79-7.31,4.84,4.84,0,0,1,3.37-7.78A64.81,64.81,0,0,1,184.22,144.43Z"/><path class="cls-1" d="M222.6,146.65c8.66,0,13-3.25,16.57-8,8-10.7,5-28.54-5.28-38.29s-27.41-11.07-38.51-2.67C185,105.53,185,115.43,194.7,124.1c4.11,3.67,8,14.65,11.9,18.55C211.38,147.36,214.6,146.65,222.6,146.65Z"/><path class="cls-1" d="M137.09,146.65c-8.66,0-13-3.25-16.57-8-8-10.7-5-28.54,5.29-38.29s27.4-11.07,38.5-2.67c10.38,7.85,10.39,17.75.69,26.42-4.11,3.67-7.95,14.65-11.91,18.55C148.31,147.36,145.09,146.65,137.09,146.65Z"/><path class="cls-1" d="M93.66,111.67c-13.43-2.16-21.79-14.2-18.93-27.88C77,73.07,83.81,66.12,94.32,63.35c9.78-2.57,17.6,1.47,23.66,9,3.89,4.82,4.79,9.49-1,15.18-4.92,4.85-8.52,11.33-11.66,17.61C102,111.8,101.15,112.87,93.66,111.67Z"/><path class="cls-1" d="M267.55,115.82c-7.21,1-7.86,0-11.21-6.55a105.66,105.66,0,0,0-12.28-18.42c-3.82-4.68-4.8-7.28-1.85-12.36,5.35-9.18,16.79-13.82,26.56-10.76,11.64,3.63,19.66,15.26,18.63,27C286.41,106.06,278.73,114.21,267.55,115.82Z"/><path class="cls-1" d="M233.75,278.25c-3.77,18.81-30.95,23.49-43.49,14.68-3.19-2.25-6.49-7.65-6.1-11.2,3.6-32.4,14.41-62.05,36-87.09a27.79,27.79,0,0,1,7-5.53c10.44-6.17,15.42-3.72,16.41,8.3.49,6,.09,12,.09,18C244.55,215.52,237.93,257.43,233.75,278.25Z"/><path class="cls-1" d="M174,279.41c1.32,8.78-3.42,13.16-10.77,15.82-17.43,6.31-34.38-1.31-39.86-18.75a211.8,211.8,0,0,1-9.29-78.94c.85-12.11,5.92-14.64,16.29-8.45a35.83,35.83,0,0,1,9.16,7.63C159.48,220.76,168.57,249.38,174,279.41Z"/><path class="cls-1" d="M72.51,267.85c.76-16.17,4.76-30.11,15.76-40.82a19.32,19.32,0,0,1,13-4.78c1.84.07,4.19,6.64,5,10.52,3.3,15.86,6.45,31.78,8.78,47.8.46,3.14-2.47,9.35-4.77,9.85-8.51,1.86-17.93,4.1-26,2.13C71.33,289.41,74.24,276.47,72.51,267.85Z"/><path class="cls-1" d="M285,264.7c.39,31.69-15.79,33.58-37.37,25.93-2.63-.93-5.5-6.79-5-9.9,2.44-16.77,5.89-33.39,9-50.06,1.92-10.33,7.91-12.72,15.89-5.62C280,236.16,284.31,251,285,264.7Z"/><path class="cls-2" d="M161.93,160.45a25.77,25.77,0,0,0,9.87,2.94,9.18,9.18,0,0,0,3.87-.32,10,10,0,0,0,2.47-1.43c.88-.64,1.74-1.31,2.57-2"/><path class="cls-2" d="M200.71,160.45a25.77,25.77,0,0,1-9.87,2.94,9.18,9.18,0,0,1-3.87-.32,10,10,0,0,1-2.47-1.43c-.88-.64-1.73-1.31-2.57-2"/></g></svg>